<!-- <svg viewBox="0 0 1024 1024" xmlns="http://www.w3.org/2000/svg" data-v-029747aa=""><path fill="currentColor" d="M128 896V128h768v768H128zm291.712-327.296 128 102.4 180.16-201.792-47.744-42.624-139.84 156.608-128-102.4-180.16 201.792 47.744 42.624 139.84-156.608zM816 352a48 48 0 1 0-96 0 48 48 0 0 0 96 0z"></path></svg> -->
<svg viewBox="0 0 1024 1024" xmlns="http://www.w3.org/2000/svg" data-v-029747aa=""><path fill="currentColor" d="M389.44 768a96.064 96.064 0 0 1 181.12 0H896v64H570.56a96.064 96.064 0 0 1-181.12 0H128v-64h261.44zm192-288a96.064 96.064 0 0 1 181.12 0H896v64H762.56a96.064 96.064 0 0 1-181.12 0H128v-64h453.44zm-320-288a96.064 96.064 0 0 1 181.12 0H896v64H442.56a96.064 96.064 0 0 1-181.12 0H128v-64h133.44z"></path></svg>