<svg xmlns="http://www.w3.org/2000/svg" width="113.94" height="15.352" viewBox="0 0 113.94 15.352">
  <g id="组_9" data-name="组 9" transform="translate(-26.561 -16.534)">
    <path id="路径_40" data-name="路径 40" class="cls-1" d="M69.935,16.534h-10.4v1.855a1.672,1.672,0,0,0,1.67,1.67h8.729a.351.351,0,0,1,.351.351v3.127a.351.351,0,0,1-.351.351H61.188a1.676,1.676,0,0,0-1.674,1.673v6.277H63.04V27.413h6.895a3.88,3.88,0,0,0,3.876-3.876V20.41A3.881,3.881,0,0,0,69.935,16.534Z"/>
    <path id="路径_41" data-name="路径 41" class="cls-1" d="M123.655,18.082a1.98,1.98,0,0,0,1.978,1.977h12.891a1.979,1.979,0,0,0,1.977-1.977V16.534H123.655Z"/>
    <rect id="矩形_20" data-name="矩形 20" class="cls-1" width="3.525" height="10.641" transform="translate(130.315 21.245)"/>
    <path id="路径_42" data-name="路径 42" class="cls-1" d="M105.47,22.423H96.95a.414.414,0,0,1-.414-.414V20.473a.414.414,0,0,1,.414-.414h9.664a1.911,1.911,0,0,0,1.909-1.909V16.534H96.084a3.077,3.077,0,0,0-3.074,3.073v3.269a3.077,3.077,0,0,0,3.074,3.073h8.52a.414.414,0,0,1,.414.414V27.9a.415.415,0,0,1-.414.414H94.94a1.911,1.911,0,0,0-1.909,1.909v1.616h12.438a3.077,3.077,0,0,0,3.074-3.074V25.5A3.077,3.077,0,0,0,105.47,22.423Z"/>
    <path id="路径_43" data-name="路径 43" class="cls-1" d="M26.561,20.4v7.566a3.873,3.873,0,0,0,3.869,3.869h10.5V29.989a1.678,1.678,0,0,0-1.676-1.676H30.527a.441.441,0,0,1-.44-.441V20.5a.441.441,0,0,1,.44-.44h8.728a1.681,1.681,0,0,0,1.679-1.679V16.534H30.43A3.874,3.874,0,0,0,26.561,20.4Z"/>
    <path id="路径_44" data-name="路径 44" class="cls-1" d="M32.052,22.682V25.69a.259.259,0,0,0,.258.259h7.966V22.423H32.31A.259.259,0,0,0,32.052,22.682Z"/>
    <path id="路径_45" data-name="路径 45" class="cls-1" d="M54.125,16.534h-7.8A3.873,3.873,0,0,0,42.454,20.4V31.838h3.525V20.4a.344.344,0,0,1,.344-.344h7.8a.344.344,0,0,1,.344.344V31.838h3.526V20.4A3.874,3.874,0,0,0,54.125,16.534Z"/>
    <path id="路径_46" data-name="路径 46" class="cls-1" d="M51.731,21.976H48.718a.256.256,0,0,0-.256.256v9.606h3.525V22.232A.256.256,0,0,0,51.731,21.976Z"/>
    <path id="路径_47" data-name="路径 47" class="cls-1" d="M120.489,17.893a2.452,2.452,0,0,0-4.39,0l-6.762,13.992h3.9l4.983-10.311a.083.083,0,0,1,.15,0l3.359,6.951h-3.339a1.657,1.657,0,0,0-1.626,1.683v1.677h10.488Z"/>
    <path id="路径_48" data-name="路径 48" class="cls-1" d="M87.078,16.555H79.743a4.42,4.42,0,0,0-4.416,4.415v6.48a4.42,4.42,0,0,0,4.416,4.415h7.335a4.42,4.42,0,0,0,4.415-4.415V20.97A4.42,4.42,0,0,0,87.078,16.555ZM83.41,29.207a5,5,0,1,1,5-5A5,5,0,0,1,83.41,29.207Z"/>
  </g>
</svg>
